<!--?xml version="1.0" encoding="utf-8"?-->
<!-- Generator: Adobe Illustrator 18.1.1, SVG Export Plug-In . SVG Version: 6.00 Build 0)  -->

<svg version="1.1" id="_x32_" xmlns="http://www.w3.org/2000/svg" xmlns:xlink="http://www.w3.org/1999/xlink" x="0px" y="0px" viewBox="0 0 512 512" style="width: 256px; height: 256px; opacity: 1;" xml:space="preserve">
<style type="text/css">
	.st0{fill:#4B4B4B;}
</style>
<g>
	<polygon class="st0" points="212.777,141.906 212.737,141.955 212.737,147.241 220.525,147.241 220.525,153.704 212.737,153.704 
		212.737,158.998 212.777,159.039 237.024,159.039 237.065,158.998 237.065,141.955 237.024,141.906 	" style="fill: rgb(223, 128, 86);"></polygon>
	<path class="st0" d="M408.083,322.738c-28.763-50.074-1.503-70.911-1.503-70.911c9.053-10.555-4.532-28.668-16.598-15.092
		c0,0-37.218,31.039-7.546,84.505c24.131,43.487,14.448,86.925-18.306,106.438c-2.54-48.526-83.138-121.11-88.386-159.376
		l29.696-1.647l-2.025-22.196c0,0,18.158,4.042,26.227,2.026c-2.252-21.415-12.066-42.82-20.287-57.55
		c30.528-5.681,50.102-14.367,50.102-24.123c0-11.798-28.582-22.049-70.628-27.285L234.327,6.093C232.8,2.404,229.198,0,225.205,0
		c-3.998,0-7.599,2.404-9.127,6.093l-54.503,131.433c-42.046,5.236-70.627,15.487-70.627,27.285
		c0,9.666,19.208,18.294,49.279,23.983c-8.238,14.729-18.105,36.209-20.365,57.69c8.069,2.016,26.232-2.026,26.232-2.026
		l-2.026,22.196l33.34,1.853c9.604,59.731-19.31,103.671-30.216,155.852C133.876,488.124,129.508,512,225.983,512
		c112.97,0,133.648-8.925,137.423-48.345C410.66,437.589,439.085,376.698,408.083,322.738z M245.146,158.998
		c-0.008,4.487-3.635,8.118-8.122,8.118h-24.247c-4.487,0-8.114-3.631-8.121-8.118v-17.042c0.008-4.487,3.63-8.118,8.121-8.126
		h24.247c4.491,0.008,8.114,3.639,8.122,8.126V158.998z" style="fill: rgb(223, 128, 86);"></path>
</g>
</svg>
